0.11m3min_grf.mot
version=1
nRows=30
nColumns 19
inDegrees=yes
endheader
time	1_ground_force_vx	1_ground_force_vy	1_ground_force_vz	1_ground_force_px	1_ground_force_py	1_ground_force_pz	1_ground_torque_x	1_ground_torque_y	1_ground_torque_z	2_ground_force_vx	2_ground_force_vy	2_ground_force_vz	2_ground_force_px	2_ground_force_py	2_ground_force_pz	2_ground_torque_x	2_ground_torque_y	2_ground_torque_z
            2.502500	            6.325211	          833.843095	          -64.859341	           -0.197145	            0.006328	           -0.428166	            0.006910	            0.910899	           -0.070853	          -22.322013	          713.665156	           60.465106	           -0.192238	            0.005634	           -0.654116	            0.012832	           -0.410252	           -0.034759
            2.503000	            5.958070	          837.267648	          -64.752040	           -0.197152	            0.006329	           -0.428418	            0.006792	            0.954483	           -0.073817	          -22.760156	          718.266330	           60.763280	           -0.192262	            0.005634	           -0.654108	            0.019267	           -0.608028	           -0.051437
            2.503500	            5.729381	          842.492783	          -64.132917	           -0.197359	            0.006328	           -0.428381	            0.007154	            1.051916	           -0.080075	          -22.589207	          722.869368	           61.155052	           -0.192336	            0.005633	           -0.653997	            0.025848	           -0.827167	           -0.069979
            2.504000	            5.776172	          847.897481	          -63.330295	           -0.197335	            0.006327	           -0.428144	            0.007832	            1.149748	           -0.085876	          -22.420397	          728.026061	           61.220298	           -0.192423	            0.005633	           -0.654052	            0.029554	           -0.959657	           -0.080698
            2.504500	            5.363481	          850.961039	          -63.132707	           -0.197346	            0.006330	           -0.428681	            0.007853	            1.245893	           -0.092433	          -22.668396	          731.890679	           61.703477	           -0.192428	            0.005633	           -0.653923	            0.029526	           -0.953311	           -0.080371
            2.505000	            4.995606	          855.287935	          -63.250817	           -0.197204	            0.006329	           -0.428534	            0.008166	            1.398113	           -0.103394	          -22.921092	          737.044556	           62.097399	           -0.192306	            0.005633	           -0.653960	            0.027084	           -0.870905	           -0.073375
            2.505500	            4.718197	          859.436836	          -63.874331	           -0.197163	            0.006329	           -0.428603	            0.008288	            1.509626	           -0.112197	          -22.985014	          741.830615	           62.583783	           -0.192479	            0.005632	           -0.653826	            0.029308	           -0.945894	           -0.079799
            2.506000	            3.844440	          863.225694	          -64.681352	           -0.197255	            0.006330	           -0.428646	            0.006728	            1.510680	           -0.113195	          -23.518125	          746.799230	           63.024096	           -0.192566	            0.005633	           -0.654142	            0.030283	           -0.961623	           -0.081154
            2.506500	            3.477182	          867.912002	          -64.522773	           -0.197360	            0.006329	           -0.428546	            0.006104	            1.523537	           -0.113264	          -23.902873	          749.560003	           63.081040	           -0.192622	            0.005631	           -0.653745	            0.034931	           -1.095385	           -0.092185
            2.507000	            3.385228	          871.876982	          -64.322117	           -0.197387	            0.006330	           -0.428738	            0.006535	            1.683185	           -0.124176	          -23.685799	          754.347792	           63.332664	           -0.192580	            0.005632	           -0.653910	            0.039905	           -1.270893	           -0.106700
            2.507500	            2.790447	          876.019726	          -63.523312	           -0.197503	            0.006329	           -0.428629	            0.005381	            1.689263	           -0.122494	          -23.655484	          758.950992	           63.536783	           -0.192735	            0.005631	           -0.653834	            0.043125	           -1.383601	           -0.115830
            2.508000	            2.791644	          879.441598	          -62.774932	           -0.197371	            0.006330	           -0.428772	            0.006007	            1.892261	           -0.135070	          -23.482082	          762.819141	           63.456645	           -0.192664	            0.005631	           -0.653810	            0.042723	           -1.387855	           -0.115451
            2.508500	            2.700534	          883.765597	          -62.205882	           -0.197514	            0.006331	           -0.428914	            0.006474	            2.118737	           -0.149132	          -23.497869	          767.237423	           63.847840	           -0.192864	            0.005631	           -0.653769	            0.043267	           -1.412743	           -0.117565
            2.509000	            2.148394	          887.373164	          -62.739328	           -0.197610	            0.006331	           -0.428912	            0.005492	            2.268576	           -0.160394	          -23.745909	          771.102254	           64.237162	           -0.192718	            0.005631	           -0.653671	            0.043742	           -1.420440	           -0.118331
            2.509500	            1.871815	          891.340270	          -63.042636	           -0.197544	            0.006330	           -0.428744	            0.004921	            2.343185	           -0.165729	          -24.090290	          775.703264	           64.676081	           -0.192775	            0.005630	           -0.653623	            0.046533	           -1.498367	           -0.124930
            2.510000	            0.953581	          895.126883	          -63.299256	           -0.197537	            0.006330	           -0.428823	            0.002404	            2.256915	           -0.159599	          -24.150308	          779.385149	           64.970811	           -0.192885	            0.005629	           -0.653476	            0.054724	           -1.766052	           -0.147221
            2.510500	            0.770073	          898.370904	          -63.101464	           -0.197567	            0.006330	           -0.428835	            0.001986	            2.316894	           -0.162738	          -24.171514	          785.277393	           65.132621	           -0.192960	            0.005630	           -0.653822	            0.056015	           -1.819808	           -0.150939
            2.511000	            0.312255	          901.253100	          -62.629407	           -0.197657	            0.006331	           -0.429009	            0.000834	            2.407706	           -0.167315	          -24.367800	          787.672615	           64.578105	           -0.193005	            0.005629	           -0.653556	            0.057894	           -1.871389	           -0.153428
            2.511500	            0.084155	          904.494828	          -61.927082	           -0.197583	            0.006331	           -0.429080	            0.000233	            2.507846	           -0.171702	          -24.056592	          792.278504	           64.312824	           -0.193009	            0.005630	           -0.653699	            0.060485	           -1.992007	           -0.161700
            2.512000	           -0.097550	          908.456570	          -60.946652	           -0.197549	            0.006331	           -0.428999	           -0.000292	            2.720950	           -0.182543	          -24.211014	          796.144464	           64.514394	           -0.193174	            0.005629	           -0.653558	            0.060954	           -2.004379	           -0.162422
            2.512500	           -0.005659	          911.699932	          -60.611971	           -0.197764	            0.006332	           -0.429147	           -0.000018	            2.910214	           -0.193478	          -24.459182	          800.010422	           64.622148	           -0.193119	            0.005629	           -0.653533	            0.064092	           -2.096334	           -0.169335
            2.513000	           -0.235694	          914.945124	          -60.689193	           -0.197811	            0.006331	           -0.429047	           -0.000777	            3.018028	           -0.200189	          -24.803038	          804.428401	           64.731913	           -0.193324	            0.005628	           -0.653537	            0.068339	           -2.216406	           -0.178353
            2.513500	           -0.649622	          918.551538	          -60.947852	           -0.197824	            0.006331	           -0.428951	           -0.002156	            3.048299	           -0.202261	          -25.472730	          808.291832	           65.121415	           -0.193224	            0.005628	           -0.653512	            0.071706	           -2.275357	           -0.183318
            2.514000	           -1.154584	          921.075492	          -61.027484	           -0.197787	            0.006331	           -0.429093	           -0.003739	            2.982576	           -0.197616	          -25.628588	          812.526911	           65.089659	           -0.193277	            0.005628	           -0.653568	            0.075941	           -2.407625	           -0.192869
            2.514500	           -1.751071	          925.221063	          -60.916523	           -0.197707	            0.006330	           -0.428859	           -0.005743	            3.034513	           -0.199792	          -25.409102	          816.580146	           64.775518	           -0.193298	            0.005629	           -0.653745	            0.079145	           -2.543499	           -0.201764
            2.515000	           -2.024328	          927.200289	          -60.036071	           -0.197667	            0.006332	           -0.429137	           -0.006986	            3.199687	           -0.207179	          -25.611206	          820.631478	           64.602341	           -0.193378	            0.005628	           -0.653534	            0.079151	           -2.536155	           -0.199653
            2.515500	           -2.068552	          930.801661	          -59.103379	           -0.197879	            0.006332	           -0.429127	           -0.007525	            3.385904	           -0.214996	          -25.713710	          823.026369	           64.235498	           -0.193416	            0.005627	           -0.653256	            0.081993	           -2.624388	           -0.204828
            2.516000	           -2.022080	          932.963089	          -58.681518	           -0.197805	            0.006332	           -0.429269	           -0.007818	            3.607080	           -0.226878	          -25.680984	          826.895014	           63.873851	           -0.193405	            0.005627	           -0.653369	            0.086094	           -2.772112	           -0.214133
            2.516500	           -2.204546	          935.484353	          -58.119971	           -0.197868	            0.006332	           -0.429356	           -0.008654	            3.672467	           -0.228164	          -25.884334	          831.313837	           63.889700	           -0.193373	            0.005627	           -0.653260	            0.091008	           -2.922867	           -0.224634
            2.517000	           -2.296822	          937.467620	          -58.202953	           -0.197822	            0.006332	           -0.429353	           -0.009193	            3.752054	           -0.232947	          -26.507879	          835.361973	           64.185983	           -0.193488	            0.005627	           -0.653389	            0.094634	           -2.982261	           -0.229145
